HIERARCHY
ROOT Hips
{
	OFFSET 0.000000 0.000000 0.000000
	CHANNELS 6 Xposition Yposition Zposition Xrotation Yrotation Zrotation
	JOINT LeftUpLeg_virtual
	{
		OFFSET 0.000000 0.000000 0.000000
		CHANNELS 3 Xrotation Yrotation Zrotation
		JOINT LeftUpLeg
		{
			OFFSET 10.205400 -3.823500 0.155100
			CHANNELS 3 Xrotation Yrotation Zrotation
			JOINT LeftLeg
			{
				OFFSET 0.708757 -12.982077 0.567790
				CHANNELS 3 Xrotation Yrotation Zrotation
				JOINT LeftFoot
				{
					OFFSET -0.708756 -10.717838 -2.184338
					CHANNELS 3 Xrotation Yrotation Zrotation
					JOINT LeftToeBase
					{
						OFFSET 0.108149 -7.191104 7.560241
						CHANNELS 3 Xrotation Yrotation Zrotation
						JOINT LeftToe_End
						{
							OFFSET 0.070230 0.081724 4.490308
							CHANNELS 3 Xrotation Yrotation Zrotation
							End Site
							{
								OFFSET 0 0 0
							}
						}
					}
				}
			}
		}
	}
	JOINT RightUpLeg_virtual
	{
		OFFSET 0.000000 0.000000 0.000000
		CHANNELS 3 Xrotation Yrotation Zrotation
		JOINT RightUpLeg
		{
			OFFSET -10.205400 -3.823500 0.005500
			CHANNELS 3 Xrotation Yrotation Zrotation
			JOINT RightLeg
			{
				OFFSET -0.708756 -12.982134 0.610632
				CHANNELS 3 Xrotation Yrotation Zrotation
				JOINT RightFoot
				{
					OFFSET 0.708754 -10.717769 -1.945823
					CHANNELS 3 Xrotation Yrotation Zrotation
					JOINT RightToeBase
					{
						OFFSET -0.108140 -7.191069 7.372968
						CHANNELS 3 Xrotation Yrotation Zrotation
						JOINT RightToe_End
						{
							OFFSET -0.070227 0.081735 4.479403
							CHANNELS 3 Xrotation Yrotation Zrotation
							End Site
							{
								OFFSET 0 0 0
							}
						}
					}
				}
			}
		}
	}
	JOINT Spine_virtual
	{
		OFFSET 0.000000 0.000000 0.000000
		CHANNELS 3 Xrotation Yrotation Zrotation
		JOINT Spine
		{
			OFFSET 0.000000 6.876099 0.125700
			CHANNELS 3 Xrotation Yrotation Zrotation
			JOINT Spine1
			{
				OFFSET 0.000000 5.730043 0.104720
				CHANNELS 3 Xrotation Yrotation Zrotation
				JOINT Spine1_split
				{
					OFFSET 0.000000 5.730043 0.104720
					CHANNELS 3 Xrotation Yrotation Zrotation
					JOINT Spine2
					{
						OFFSET 0.000000 5.730043 0.104720
						CHANNELS 3 Xrotation Yrotation Zrotation
						JOINT Neck_virtual
						{
							OFFSET 0.000000 0.000000 0.000000
							CHANNELS 3 Xrotation Yrotation Zrotation
							JOINT Neck
							{
								OFFSET 0.000000 10.314075 0.188496
								CHANNELS 3 Xrotation Yrotation Zrotation
								JOINT Head
								{
									OFFSET 0.000000 7.643700 -2.377400
									CHANNELS 3 Xrotation Yrotation Zrotation
									JOINT HeadTop_End
									{
										OFFSET 0.000000 43.788605 -13.619600
										CHANNELS 3 Xrotation Yrotation Zrotation
										End Site
										{
											OFFSET 0 0 0
										}
									}
								}
							}
						}
						JOINT LeftShoulder_virtual
						{
							OFFSET 0.000000 0.000000 0.000000
							CHANNELS 3 Xrotation Yrotation Zrotation
							JOINT LeftShoulder
							{
								OFFSET 2.196100 4.412489 0.087492
								CHANNELS 3 Xrotation Yrotation Zrotation
								JOINT LeftShoulder_split
								{
									OFFSET 2.196100 4.412489 0.087492
									CHANNELS 3 Xrotation Yrotation Zrotation
									JOINT LeftArm
									{
										OFFSET 8.771219 -2.981674 -0.026999
										CHANNELS 3 Xrotation Yrotation Zrotation
										JOINT LeftForeArm
										{
											OFFSET 8.512804 0.000000 -0.000000
											CHANNELS 3 Xrotation Yrotation Zrotation
											JOINT LeftHand
											{
												OFFSET 18.484802 0.000000 -0.000000
												CHANNELS 3 Xrotation Yrotation Zrotation
												End Site
												{
													OFFSET 0 0 0
												}
											}
										}
									}
								}
							}
						}
						JOINT RightShoulder_virtual
						{
							OFFSET 0.000000 0.000000 0.000000
							CHANNELS 3 Xrotation Yrotation Zrotation
							JOINT RightShoulder
							{
								OFFSET -2.196100 4.412496 0.070690
								CHANNELS 3 Xrotation Yrotation Zrotation
								JOINT RightShoulder_split
								{
									OFFSET -2.196100 4.412496 0.070690
									CHANNELS 3 Xrotation Yrotation Zrotation
									JOINT RightArm
									{
										OFFSET -8.771282 -2.981682 -0.094208
										CHANNELS 3 Xrotation Yrotation Zrotation
										JOINT RightForeArm
										{
											OFFSET -8.494598 0.000000 0.000000
											CHANNELS 3 Xrotation Yrotation Zrotation
											JOINT RightHand
											{
												OFFSET -18.483803 0.000000 0.000001
												CHANNELS 3 Xrotation Yrotation Zrotation
												End Site
												{
													OFFSET 0 0 0
												}
											}
										}
									}
								}
							}
						}
					}
				}
			}
		}
	}
}
MOTION
Frames: 4
Frame Time: 0.03333333
-3.296138 25.865332 -8.187023 0.000000 0.000000 0.000000 12.445469 -22.799648 7.482147 -71.315938 -9.701123 12.731864 71.313691 -16.229947 8.919300 -0.786552 -3.439656 -30.144029 6.041763 -1.428775 2.150324 0.000000 0.000000 0.000000 10.912294 -20.224173 7.093663 -49.545666 6.634160 -9.984653 58.870302 19.048679 -6.253759 -24.496967 -1.279632 16.026930 0.153013 5.223885 -7.834617 0.000000 0.000000 0.000000 13.277503 -17.677168 5.840970 -5.605471 10.069869 1.857318 3.922879 13.708864 2.362691 0.159962 -2.360208 0.448307 0.000000 0.000000 0.000000 12.420027 16.345022 3.594488 -6.902814 33.564308 4.244834 -48.807593 -15.703160 -56.846718 0.000000 0.000000 0.000000 5.985101 13.426126 4.128606 -1.338031 -10.309856 7.149636 -13.666629 1.925408 -3.334808 -54.781795 1.691995 -60.831502 159.513932 -75.901454 170.647823 0.000000 0.000000 0.000000 2.546903 11.088127 4.861968 -15.355679 -7.600986 -27.894554 -76.689378 -19.121021 -5.304228 -94.979046 29.175180 125.437025 -10.869674 8.342723 17.200190 0.000000 0.000000 0.000000 
-3.602728 26.224737 -10.099663 0.000000 0.000000 0.000000 12.230825 -20.267145 6.508958 -72.049787 -7.325138 10.929228 72.395613 -15.692112 9.318942 -0.884657 -4.127338 -32.279805 4.117002 -1.938843 3.948122 0.000000 0.000000 0.000000 9.108750 -23.775103 6.441095 -47.212320 3.264746 -10.446199 57.813843 19.716886 -6.435776 -24.074914 -0.586222 19.773007 2.338429 5.633228 -9.681348 0.000000 0.000000 0.000000 14.438824 -16.080374 6.115082 -6.726599 9.933142 2.816013 3.951134 13.622957 2.324178 0.122247 -2.551383 0.567699 0.000000 0.000000 0.000000 12.155516 16.257978 3.696168 -6.432991 33.547171 4.413530 -49.924083 -16.480152 -56.162839 0.000000 0.000000 0.000000 5.855597 13.314922 3.920558 -1.211255 -10.985798 7.492636 -13.470883 0.873475 -2.051269 -56.382839 0.981683 -61.611305 159.702158 -75.808106 170.928776 0.000000 0.000000 0.000000 2.621488 11.093907 5.017859 -15.002514 -7.117515 -27.347376 -79.298100 -20.329092 -8.219953 -93.947435 29.474227 124.382867 -10.915209 8.859192 17.484154 0.000000 0.000000 0.000000 
-4.159322 26.915384 -12.602091 0.000000 0.000000 0.000000 12.085700 -18.732019 5.836899 -71.463600 -3.384091 7.990588 70.812574 -15.561232 9.066865 -0.401459 -5.548320 -33.034753 1.993111 -2.739790 5.922975 0.000000 0.000000 0.000000 8.170910 -26.320472 5.922574 -43.438989 -1.135040 -10.563629 56.121294 19.853842 -6.134218 -24.146414 -0.971098 24.312127 1.533362 6.024042 -11.689025 0.000000 0.000000 0.000000 15.643537 -15.409684 6.424908 -7.704945 10.124862 4.117637 4.214196 13.428686 2.134445 0.162018 -2.485663 0.590516 0.000000 0.000000 0.000000 11.873248 15.953804 3.728897 -6.464241 32.611903 5.194190 -52.229876 -18.493750 -56.392299 0.000000 0.000000 0.000000 5.709150 13.014494 3.846779 -1.194325 -11.498200 7.558051 -12.415525 0.109284 -0.985640 -58.294852 0.334304 -62.690946 158.557856 -76.566045 169.584923 0.000000 0.000000 0.000000 2.749536 10.860302 5.227624 -14.268170 -5.438041 -26.300345 -80.506538 -20.172016 -10.433614 -92.567423 30.911114 122.701084 -11.332955 9.814724 18.084213 0.000000 0.000000 0.000000 
-4.783750 27.673756 -15.339678 0.000000 0.000000 0.000000 12.360646 -18.759099 5.829619 -69.406982 0.634021 4.541639 66.842922 -15.713304 7.862525 0.450681 -7.004562 -32.007854 -0.145533 -3.608772 7.263830 0.000000 0.000000 0.000000 8.293825 -27.233861 5.758346 -38.564136 -5.265075 -10.431854 55.066850 18.580742 -5.342174 -25.907959 -3.309373 26.630588 -0.459574 6.181075 -12.962899 0.000000 0.000000 0.000000 16.430532 -16.157663 6.703424 -8.093179 10.559211 5.257153 4.651423 13.193305 1.925552 0.211055 -2.108499 0.469360 0.000000 0.000000 0.000000 11.560685 15.552119 3.757663 -7.046290 30.933288 6.411168 -55.217513 -21.326441 -57.720563 0.000000 0.000000 0.000000 5.633237 12.594339 3.987988 -1.249855 -11.757703 7.505469 -11.494301 0.257984 -0.324296 -60.260853 -0.104119 -63.831997 156.109547 -78.099627 166.685262 0.000000 0.000000 0.000000 2.961950 10.529401 5.472602 -13.270427 -2.714081 -24.980442 -79.695084 -18.358162 -11.161764 -91.084063 33.326160 120.595787 -11.833479 10.610803 18.802877 0.000000 0.000000 0.000000 
